<svg width="30" height="30" viewBox="0 0 30 30" fill="none" xmlns="http://www.w3.org/2000/svg">
<path d="M12.243 3.31801C14.0561 2.89001 15.9439 2.89001 17.757 3.31801C18.046 3.38774 18.2957 3.56906 18.4515 3.82233C18.6072 4.07561 18.6564 4.38024 18.5882 4.66964C18.52 4.95905 18.34 5.20969 18.0876 5.36678C17.8351 5.52388 17.5308 5.57466 17.241 5.50801C15.7673 5.15996 14.2327 5.15996 12.759 5.50801C12.4692 5.57466 12.1649 5.52388 11.9124 5.36678C11.66 5.20969 11.48 4.95905 11.4118 4.66964C11.3436 4.38024 11.3928 4.07561 11.5485 3.82233C11.7043 3.56906 11.954 3.38774 12.243 3.31801ZM10.2375 5.15551C10.3154 5.28108 10.3679 5.42077 10.3918 5.56661C10.4158 5.71245 10.4108 5.86158 10.377 6.00547C10.3433 6.14937 10.2816 6.28521 10.1954 6.40524C10.1091 6.52527 10.0001 6.62714 9.8745 6.70501C8.58756 7.50276 7.50274 8.58757 6.705 9.87451C6.54621 10.1246 6.2952 10.3019 6.00647 10.368C5.71773 10.4342 5.41456 10.3838 5.16276 10.2277C4.91097 10.0717 4.73086 9.82271 4.66154 9.53472C4.59222 9.24673 4.63928 8.94302 4.7925 8.68951C5.7733 7.10714 7.10712 5.77331 8.6895 4.79251C8.94296 4.63556 9.24836 4.58563 9.53861 4.6537C9.82886 4.72176 10.0802 4.90225 10.2375 5.15551ZM19.7625 5.15551C19.9198 4.90225 20.1711 4.72176 20.4614 4.6537C20.7516 4.58563 21.057 4.63556 21.3105 4.79251C22.8929 5.77331 24.2267 7.10714 25.2075 8.68951C25.3607 8.94302 25.4078 9.24673 25.3385 9.53472C25.2691 9.82271 25.089 10.0717 24.8372 10.2277C24.5854 10.3838 24.2823 10.4342 23.9935 10.368C23.7048 10.3019 23.4538 10.1246 23.295 9.87451C22.4977 8.58774 21.4134 7.50294 20.127 6.70501C20.0013 6.62726 19.8921 6.52548 19.8057 6.40551C19.7193 6.28553 19.6575 6.14971 19.6236 6.00581C19.5898 5.8619 19.5846 5.71274 19.6084 5.56684C19.6323 5.42094 19.6846 5.28117 19.7625 5.15551ZM4.671 11.406C4.96141 11.4744 5.21274 11.6554 5.36971 11.9092C5.52668 12.1629 5.57642 12.4686 5.508 12.759C5.15995 14.2327 5.15995 15.7673 5.508 17.241C5.57464 17.5308 5.52387 17.8351 5.36677 18.0876C5.20967 18.34 4.95903 18.52 4.66963 18.5882C4.38022 18.6564 4.07559 18.6072 3.82232 18.4515C3.56905 18.2957 3.38773 18.0461 3.318 17.757C2.88999 15.9439 2.88999 14.0561 3.318 12.243C3.38643 11.9526 3.56742 11.7013 3.82115 11.5443C4.07489 11.3873 4.38059 11.3376 4.671 11.406ZM25.329 11.406C25.6194 11.3376 25.9251 11.3873 26.1788 11.5443C26.4326 11.7013 26.6136 11.9526 26.682 12.243C27.11 14.0561 27.11 15.9439 26.682 17.757C26.6123 18.0461 26.431 18.2957 26.1777 18.4515C25.9244 18.6072 25.6198 18.6564 25.3304 18.5882C25.041 18.52 24.7903 18.34 24.6332 18.0876C24.4761 17.8351 24.4254 17.5308 24.492 17.241C24.84 15.7673 24.84 14.2327 24.492 12.759C24.4236 12.4686 24.4733 12.1629 24.6303 11.9092C24.7873 11.6554 25.0386 11.4744 25.329 11.406ZM5.1555 19.761C5.28124 19.6832 5.42109 19.6309 5.56705 19.6072C5.71301 19.5835 5.86221 19.5888 6.00613 19.6228C6.15004 19.6568 6.28584 19.7188 6.40576 19.8053C6.52568 19.8918 6.62736 20.0012 6.705 20.127C7.50292 21.4134 8.58772 22.4977 9.8745 23.295C10.0018 23.372 10.1126 23.4734 10.2005 23.5935C10.2883 23.7136 10.3515 23.8499 10.3863 23.9945C10.4211 24.1392 10.4269 24.2893 10.4033 24.4362C10.3797 24.5831 10.3272 24.7239 10.2489 24.8503C10.1705 24.9768 10.0678 25.0865 9.9468 25.173C9.82577 25.2595 9.68877 25.3212 9.54374 25.3544C9.39871 25.3876 9.24853 25.3918 9.1019 25.3665C8.95527 25.3413 8.8151 25.2873 8.6895 25.2075C7.10712 24.2267 5.7733 22.8929 4.7925 21.3105C4.63555 21.057 4.58562 20.7516 4.65368 20.4614C4.72174 20.1712 4.90223 19.9198 5.1555 19.7625M25.665 21.6555C25.8303 21.4126 25.8939 21.1146 25.8423 20.8253C25.7907 20.536 25.628 20.2784 25.389 20.1075C25.1499 19.9367 24.8535 19.8661 24.5631 19.911C24.2727 19.9558 24.0114 20.1125 23.835 20.3475L23.8305 20.3535L23.805 20.3865L23.694 20.532C23.0945 21.2804 22.4266 21.9714 21.699 22.596C20.172 21.501 18.189 20.6265 15.75 20.6265C14.622 20.6265 13.668 20.9925 12.99 21.642C12.6708 21.9462 12.4167 22.312 12.2432 22.7174C12.0697 23.1227 11.9803 23.5591 11.9805 24C11.9805 24.8565 12.3165 25.716 12.987 26.3595C13.6665 27.009 14.619 27.375 15.7485 27.375C18.0465 27.375 20.0505 26.499 21.621 25.464L21.7035 25.545C22.4486 26.2958 23.0962 27.1374 23.631 28.05L23.721 28.212L23.739 28.248L23.742 28.2525C23.514 27.8535 23.742 28.2555 23.742 28.2555C23.8757 28.5225 24.1099 28.7254 24.3932 28.8196C24.6765 28.9138 24.9856 28.8917 25.2525 28.758C25.5194 28.6243 25.7223 28.3901 25.8166 28.1068C25.9108 27.8236 25.8887 27.5145 25.755 27.2475L25.7535 27.2445L25.749 27.2355L25.7385 27.2175L25.7055 27.153L25.5855 26.934C24.9797 25.8993 24.252 24.941 23.418 24.0795C24.1574 23.4171 24.8407 22.6946 25.461 21.9195C25.524 21.8415 25.5725 21.779 25.6065 21.732L25.6455 21.678L25.6575 21.663L25.662 21.657L25.665 21.6555ZM15.75 22.8765C17.2905 22.8765 18.615 23.3325 19.725 23.991C18.549 24.6555 17.2005 25.1265 15.75 25.1265C15.117 25.1265 14.748 24.93 14.5455 24.7365C14.4455 24.6421 14.3659 24.5281 14.3117 24.4017C14.2576 24.2753 14.2299 24.1391 14.2305 24.0015C14.2305 23.733 14.3355 23.4675 14.5455 23.2665C14.748 23.073 15.1155 22.8765 15.75 22.8765Z" fill="black"/>
</svg>
