<svg width="30" height="30" viewBox="0 0 30 30" fill="none" xmlns="http://www.w3.org/2000/svg">
<path d="M21.25 6.25H18.75V3.75H21.25V6.25ZM18.75 26.25H21.25V23.0125L24.4875 26.25L26.25 24.4875L23.0125 21.25H26.25V18.75H18.75V26.25ZM23.75 11.25H26.25V8.75H23.75V11.25ZM23.75 16.25H26.25V13.75H23.75V16.25ZM13.75 26.25H16.25V23.75H13.75V26.25ZM8.75 6.25H11.25V3.75H8.75V6.25ZM3.75 21.25H6.25V18.75H3.75V21.25ZM6.25 26.25V23.75H3.75C3.75 25.125 4.875 26.25 6.25 26.25ZM23.75 3.75V6.25H26.25C26.25 4.875 25.125 3.75 23.75 3.75ZM13.75 6.25H16.25V3.75H13.75V6.25ZM3.75 11.25H6.25V8.75H3.75V11.25ZM8.75 26.25H11.25V23.75H8.75V26.25ZM3.75 16.25H6.25V13.75H3.75V16.25ZM3.75 6.25H6.25V3.75C4.875 3.75 3.75 4.875 3.75 6.25Z" fill="black"/>
</svg>
