<svg width="30" height="30" viewBox="0 0 30 30" fill="none" xmlns="http://www.w3.org/2000/svg">
<path d="M3.75 11.25V6.25C3.75 5.5625 3.99458 4.97417 4.48375 4.485C4.97292 3.99583 5.56167 3.75083 6.25 3.75H23.75C24.4375 3.75 25.0258 3.995 25.515 4.485C26.0042 4.975 26.2492 5.56333 26.25 6.25V11.25H23.75V6.25H6.25V11.25H3.75ZM1.25 13.75H28.75V16.25H1.25V13.75ZM3.75 18.75H6.25V21.25H3.75V18.75ZM23.75 18.75H26.25V21.25H23.75V18.75ZM3.75 23.75H6.25V26.25C5.5625 26.25 4.97375 26.0054 4.48375 25.5163C3.99375 25.0271 3.74917 24.4383 3.75 23.75ZM8.75 23.75H11.25V26.25H8.75V23.75ZM13.75 23.75H16.25V26.25H13.75V23.75ZM18.75 23.75H21.25V26.25H18.75V23.75ZM23.75 23.75H26.25C26.25 24.4375 26.005 25.0263 25.515 25.5163C25.025 26.0063 24.4367 26.2508 23.75 26.25V23.75Z" fill="black"/>
</svg>
