<svg width="30" height="30" viewBox="0 0 30 30" fill="none" xmlns="http://www.w3.org/2000/svg">
<path d="M25.8875 8.8C25.4625 9.225 25.05 9.6375 25.0375 10.05C25 10.45 25.425 10.8625 25.825 11.25C26.425 11.875 27.0125 12.4375 26.9875 13.05C26.9625 13.6625 26.325 14.3 25.6875 14.925L20.525 20.1L18.75 18.325L24.0625 13.025L22.8625 11.825L21.0875 13.5875L16.4 8.9L21.2 4.1125C21.6875 3.625 22.5 3.625 22.9625 4.1125L25.8875 7.0375C26.375 7.5 26.375 8.3125 25.8875 8.8ZM3.75 21.5625L15.7 9.6L20.3875 14.2875L8.4375 26.25H3.75V21.5625Z" fill="black"/>
</svg>
