<svg width="20" height="20" viewBox="0 0 20 20" fill="none" xmlns="http://www.w3.org/2000/svg">
<path fill-rule="evenodd" clip-rule="evenodd" d="M3.5875 9.6875L6.05 12.15C6.14211 12.2358 6.21599 12.3393 6.26723 12.4543C6.31847 12.5693 6.34602 12.6935 6.34824 12.8193C6.35046 12.9452 6.3273 13.0703 6.28015 13.187C6.233 13.3037 6.16282 13.4098 6.0738 13.4988C5.98477 13.5878 5.87873 13.658 5.762 13.7052C5.64526 13.7523 5.52023 13.7755 5.39435 13.7732C5.26847 13.771 5.14433 13.7435 5.02933 13.6922C4.91433 13.641 4.81083 13.5671 4.725 13.475L0.6625 9.4125L0 8.75L0.6625 8.0875L4.725 4.025C4.90272 3.8594 5.13778 3.76925 5.38065 3.77353C5.62353 3.77782 5.85526 3.87621 6.02703 4.04797C6.19879 4.21974 6.29718 4.45147 6.30147 4.69435C6.30575 4.93722 6.2156 5.17228 6.05 5.35L3.5875 7.8125H15.9375C17.0149 7.8125 18.0483 8.24051 18.8101 9.00238C19.572 9.76425 20 10.7976 20 11.875C20 12.9524 19.572 13.9858 18.8101 14.7476C18.0483 15.5095 17.0149 15.9375 15.9375 15.9375H13.4375C13.1889 15.9375 12.9504 15.8387 12.7746 15.6629C12.5988 15.4871 12.5 15.2486 12.5 15C12.5 14.7514 12.5988 14.5129 12.7746 14.3371C12.9504 14.1613 13.1889 14.0625 13.4375 14.0625H15.9375C16.5177 14.0625 17.0741 13.832 17.4843 13.4218C17.8945 13.0116 18.125 12.4552 18.125 11.875C18.125 11.2948 17.8945 10.7384 17.4843 10.3282C17.0741 9.91797 16.5177 9.6875 15.9375 9.6875H3.5875Z" fill="black"/>
</svg>
