<svg width="20" height="20" viewBox="0 0 20 20" fill="none" xmlns="http://www.w3.org/2000/svg">
<path fill-rule="evenodd" clip-rule="evenodd" d="M16.4125 9.6875L13.95 12.15C13.8579 12.2358 13.784 12.3393 13.7328 12.4543C13.6815 12.5693 13.654 12.6935 13.6518 12.8193C13.6495 12.9452 13.6727 13.0703 13.7198 13.187C13.767 13.3037 13.8372 13.4098 13.9262 13.4988C14.0152 13.5878 14.1213 13.658 14.238 13.7052C14.3547 13.7523 14.4798 13.7755 14.6057 13.7732C14.7315 13.771 14.8557 13.7435 14.9707 13.6922C15.0857 13.641 15.1892 13.5671 15.275 13.475L19.3375 9.4125L20 8.75L19.3375 8.0875L15.275 4.025C15.0973 3.8594 14.8622 3.76925 14.6193 3.77353C14.3765 3.77782 14.1447 3.87621 13.973 4.04797C13.8012 4.21974 13.7028 4.45147 13.6985 4.69435C13.6942 4.93722 13.7844 5.17228 13.95 5.35L16.4125 7.8125H4.0625C2.98506 7.8125 1.95175 8.24051 1.18988 9.00238C0.428013 9.76425 0 10.7976 0 11.875C0 12.9524 0.428013 13.9858 1.18988 14.7476C1.95175 15.5095 2.98506 15.9375 4.0625 15.9375H6.5625C6.81114 15.9375 7.0496 15.8387 7.22541 15.6629C7.40123 15.4871 7.5 15.2486 7.5 15C7.5 14.7514 7.40123 14.5129 7.22541 14.3371C7.0496 14.1613 6.81114 14.0625 6.5625 14.0625H4.0625C3.48234 14.0625 2.92594 13.832 2.5157 13.4218C2.10547 13.0116 1.875 12.4552 1.875 11.875C1.875 11.2948 2.10547 10.7384 2.5157 10.3282C2.92594 9.91797 3.48234 9.6875 4.0625 9.6875H16.4125Z" fill="black"/>
</svg>
