<svg width="30" height="30" viewBox="0 0 30 30" fill="none" xmlns="http://www.w3.org/2000/svg">
<path d="M14.2625 6.88125C16.35 4.79375 17.3938 3.75 18.69 3.75C19.9875 3.75 21.0313 4.79375 23.1188 6.88125C25.2063 8.96875 26.25 10.0125 26.25 11.31C26.25 12.6062 25.2063 13.65 23.1188 15.7375L17.8775 20.98L9.02 12.1225L14.2625 6.88125Z" fill="black"/>
<path d="M7.695 13.4487L16.5513 22.305L15.7387 23.1175C15.2662 23.5912 14.8475 24.01 14.4662 24.375H26.25C26.4986 24.375 26.7371 24.4738 26.9129 24.6496C27.0887 24.8254 27.1875 25.0639 27.1875 25.3125C27.1875 25.5611 27.0887 25.7996 26.9129 25.9754C26.7371 26.1512 26.4986 26.25 26.25 26.25H11.25C9.98 26.2187 8.9375 25.175 6.88125 23.1187C4.79375 21.0312 3.75 19.9875 3.75 18.69C3.75 17.3937 4.79375 16.35 6.88125 14.2625L7.695 13.4487Z" fill="black"/>
</svg>
