<svg width="30" height="30" viewBox="0 0 30 30" fill="none" xmlns="http://www.w3.org/2000/svg">
<path d="M24 19.5C24 20.0967 23.7629 20.669 23.341 21.091C22.919 21.5129 22.3467 21.75 21.75 21.75C21.1533 21.75 20.581 21.5129 20.159 21.091C19.7371 20.669 19.5 20.0967 19.5 19.5C19.5 17.8209 20.9597 15.5841 21.1256 15.3337C21.1941 15.2309 21.2869 15.1465 21.3958 15.0882C21.5048 15.0298 21.6264 14.9993 21.75 14.9993C21.8736 14.9993 21.9952 15.0298 22.1042 15.0882C22.2131 15.1465 22.3059 15.2309 22.3744 15.3337C22.5403 15.5841 24 17.8209 24 19.5ZM12.4209 11.6709C12.6323 11.4596 12.751 11.1729 12.751 10.8741C12.751 10.5752 12.6323 10.2885 12.4209 10.0772C12.2096 9.86584 11.9229 9.74711 11.6241 9.74711C11.3252 9.74711 11.0385 9.86584 10.8272 10.0772C10.6194 10.2891 10.5037 10.5746 10.5054 10.8714C10.5071 11.1682 10.626 11.4523 10.8363 11.6618C11.0465 11.8713 11.3311 11.9893 11.6279 11.9899C11.9247 11.9906 12.2098 11.8739 12.4209 11.6653V11.6709ZM3.52969 1.71937C3.38896 1.57877 3.19813 1.49983 2.9992 1.49991C2.80026 1.5 2.60951 1.57911 2.4689 1.71984C2.3283 1.86057 2.24936 2.0514 2.24944 2.25033C2.24953 2.44927 2.32864 2.64002 2.46937 2.78062L5.52562 5.83687L6.58594 4.78125L3.52969 1.71937ZM21.9872 13.0378C22.1084 12.9974 22.2172 12.9266 22.3034 12.8323C22.3896 12.738 22.4503 12.6233 22.4797 12.4989C22.5091 12.3746 22.5062 12.2448 22.4714 12.1219C22.4365 11.999 22.3709 11.887 22.2806 11.7966L11.4534 0.969374C11.3128 0.828828 11.1221 0.749878 10.9233 0.749878C10.7245 0.749878 10.5338 0.828828 10.3931 0.969374L6.58594 4.78125L10.3762 8.57062C10.9308 8.27052 11.5748 8.18004 12.1905 8.31573C12.8063 8.45142 13.3526 8.80421 13.7297 9.30959C14.1067 9.81498 14.2892 10.4392 14.2438 11.0681C14.1985 11.697 13.9283 12.2885 13.4826 12.7346C13.037 13.1806 12.4457 13.4513 11.8168 13.4973C11.188 13.5432 10.5636 13.3612 10.0579 12.9846C9.55215 12.608 9.19888 12.062 9.06265 11.4464C8.92641 10.8308 9.01632 10.1867 9.31594 9.63187L5.52562 5.83687L1.40625 9.95344C0.984324 10.3754 0.747292 10.9477 0.747292 11.5444C0.747292 12.1411 0.984324 12.7134 1.40625 13.1353L9.36469 21.0938C9.78664 21.5157 10.3589 21.7527 10.9556 21.7527C11.5523 21.7527 12.1246 21.5157 12.5466 21.0938L19.905 13.7353L21.9872 13.0378Z" fill="black"/>
</svg>
